<mxfile host="app.diagrams.net" modified="2023-05-22T15:15:07.298Z" agent="Mozilla/5.0 (X11; Ubuntu; Linux x86_64; rv:109.0) Gecko/20100101 Firefox/113.0" version="21.3.2" etag="8BRKakK277JNIKC7AvM5" type="github">
  <diagram name="PÃ¡gina-1" id="fdyQzHTaQljm0kNhG4ut">
    <mxGraphModel>
      <root>
        <mxCell id="0" />
        <mxCell id="1" parent="0" />
      </root>
    </mxGraphModel>
  </diagram>
</mxfile>
